HIERARCHY
ROOT Hips
{
	OFFSET 0.000000 71.427986 0.000000
	CHANNELS 6 Xposition Yposition Zposition Xrotation Yrotation Zrotation
	JOINT Pelvis
	{
		OFFSET 0.000000 0.000000 0.000000
		CHANNELS 3 Xrotation Yrotation Zrotation
		JOINT LeftUpLeg
		{
			OFFSET 6.797100 -2.508499 -1.318700
			CHANNELS 3 Xrotation Yrotation Zrotation
			JOINT LeftLeg
			{
				OFFSET 0.069008 -29.241863 0.690200
				CHANNELS 3 Xrotation Yrotation Zrotation
				JOINT LeftFoot
				{
					OFFSET -0.069008 -29.568123 -0.266800
					CHANNELS 3 Xrotation Yrotation Zrotation
					JOINT LeftToeBase
					{
						OFFSET 3.145500 -8.631000 16.059900
						CHANNELS 3 Xrotation Yrotation Zrotation
						End Site
						{
							OFFSET 0.000000 18.501587 0.000000
						}
					}
				}
			}
			JOINT Left_ShortSleeve
			{
				OFFSET 0.265923 -10.480953 1.153800
				CHANNELS 3 Xrotation Yrotation Zrotation
				End Site
				{
					OFFSET 1.725763 19.823879 0.000000
				}
			}
		}
		JOINT RightUpLeg
		{
			OFFSET -6.797100 -2.508499 -1.318700
			CHANNELS 3 Xrotation Yrotation Zrotation
			JOINT RightLeg
			{
				OFFSET -0.082453 -29.241932 0.688000
				CHANNELS 3 Xrotation Yrotation Zrotation
				JOINT RightFoot
				{
					OFFSET 0.082453 -29.568058 -0.264600
					CHANNELS 3 Xrotation Yrotation Zrotation
					JOINT RightToeBase
					{
						OFFSET -3.115300 -8.682800 16.113400
						CHANNELS 3 Xrotation Yrotation Zrotation
						End Site
						{
							OFFSET 0.000000 18.567114 0.000000
						}
					}
				}
			}
			JOINT Right_ShortSleeve
			{
				OFFSET -0.265923 -10.480953 1.153800
				CHANNELS 3 Xrotation Yrotation Zrotation
				End Site
				{
					OFFSET -1.725766 19.823910 0.000000
				}
			}
		}
	}
	JOINT Spine
	{
		OFFSET 0.000000 13.368103 0.470500
		CHANNELS 3 Xrotation Yrotation Zrotation
		JOINT Spine1
		{
			OFFSET 0.147000 13.837402 0.538800
			CHANNELS 3 Xrotation Yrotation Zrotation
			JOINT Spine2
			{
				OFFSET 0.168000 16.242897 -1.435500
				CHANNELS 3 Xrotation Yrotation Zrotation
				JOINT Neck
				{
					OFFSET 0.217200 18.631500 -1.679100
					CHANNELS 3 Xrotation Yrotation Zrotation
					JOINT Head
					{
						OFFSET 0.000000 6.599396 1.385900
						CHANNELS 3 Xrotation Yrotation Zrotation
						JOINT Hat
						{
							OFFSET -0.532200 27.220596 -10.096100
							CHANNELS 3 Xrotation Yrotation Zrotation
							End Site
							{
								OFFSET 0.000000 22.029861 0.000000
							}
						}
						JOINT HairD
						{
							OFFSET -10.777400 17.437393 -1.325900
							CHANNELS 3 Xrotation Yrotation Zrotation
							JOINT HairD1
							{
								OFFSET -3.290299 -11.051193 1.062200
								CHANNELS 3 Xrotation Yrotation Zrotation
								End Site
								{
									OFFSET 0.000000 11.579437 0.000000
								}
							}
						}
						JOINT HairB
						{
							OFFSET -10.777400 17.437393 1.467900
							CHANNELS 3 Xrotation Yrotation Zrotation
							JOINT HairB1
							{
								OFFSET -1.561200 -12.956299 3.590200
								CHANNELS 3 Xrotation Yrotation Zrotation
								End Site
								{
									OFFSET 0.000000 13.534866 0.000000
								}
							}
						}
						JOINT HairA
						{
							OFFSET 9.713100 17.437393 1.467900
							CHANNELS 3 Xrotation Yrotation Zrotation
							JOINT HairA1
							{
								OFFSET 1.561200 -12.956299 3.590200
								CHANNELS 3 Xrotation Yrotation Zrotation
								End Site
								{
									OFFSET 0.000000 13.534866 0.000000
								}
							}
						}
						JOINT HairC
						{
							OFFSET 9.713100 17.437393 -1.325900
							CHANNELS 3 Xrotation Yrotation Zrotation
							JOINT HairC1
							{
								OFFSET 3.290300 -11.051193 1.062200
								CHANNELS 3 Xrotation Yrotation Zrotation
								End Site
								{
									OFFSET 0.000000 11.579437 0.000000
								}
							}
						}
					}
				}
				JOINT LeftShoulder
				{
					OFFSET 5.101800 15.108002 -2.763700
					CHANNELS 3 Xrotation Yrotation Zrotation
					JOINT LeftArm
					{
						OFFSET 9.825497 2.506317 -1.597400
						CHANNELS 3 Xrotation Yrotation Zrotation
						JOINT LeftForeArm
						{
							OFFSET 21.966244 0.000000 0.000000
							CHANNELS 3 Xrotation Yrotation Zrotation
							JOINT LeftHand
							{
								OFFSET 33.879036 0.000000 0.000000
								CHANNELS 3 Xrotation Yrotation Zrotation
								JOINT LeftHandThumb1
								{
									OFFSET 6.715286 -2.359680 3.363841
									CHANNELS 3 Xrotation Yrotation Zrotation
									JOINT LeftHandThumb2
									{
										OFFSET 2.507072 -1.447464 1.447461
										CHANNELS 3 Xrotation Yrotation Zrotation
										JOINT LeftHandThumb3
										{
											OFFSET 2.898338 -1.673355 1.673357
											CHANNELS 3 Xrotation Yrotation Zrotation
											End Site
											{
												OFFSET -0.295959 3.727692 -0.131651
											}
										}
									}
								}
								JOINT LeftHandIndex1
								{
									OFFSET 14.190811 -0.254547 3.840278
									CHANNELS 3 Xrotation Yrotation Zrotation
									JOINT LeftHandIndex2
									{
										OFFSET 3.551727 0.000000 -0.000000
										CHANNELS 3 Xrotation Yrotation Zrotation
										JOINT LeftHandIndex3
										{
											OFFSET 2.894196 0.000000 0.000000
											CHANNELS 3 Xrotation Yrotation Zrotation
											End Site
											{
												OFFSET -1.000603 2.690872 0.366626
											}
										}
									}
								}
								JOINT LeftHandMiddle1
								{
									OFFSET 13.776489 0.000000 0.000000
									CHANNELS 3 Xrotation Yrotation Zrotation
									JOINT LeftHandMiddle2
									{
										OFFSET 3.438232 0.000000 0.000000
										CHANNELS 3 Xrotation Yrotation Zrotation
										JOINT LeftHandMiddle3
										{
											OFFSET 3.691551 0.000000 0.000000
											CHANNELS 3 Xrotation Yrotation Zrotation
											End Site
											{
												OFFSET -1.082298 3.499527 0.457670
											}
										}
									}
								}
								JOINT LeftHandRing1
								{
									OFFSET 13.966164 -0.268127 -3.067488
									CHANNELS 3 Xrotation Yrotation Zrotation
									JOINT LeftHandRing2
									{
										OFFSET 3.162567 0.000000 0.000000
										CHANNELS 3 Xrotation Yrotation Zrotation
										JOINT LeftHandRing3
										{
											OFFSET 3.324348 0.000000 0.000000
											CHANNELS 3 Xrotation Yrotation Zrotation
											End Site
											{
												OFFSET -0.861900 3.184998 0.405154
											}
										}
									}
								}
								JOINT LeftHandPinky1
								{
									OFFSET 13.131393 -0.168503 -5.746925
									CHANNELS 3 Xrotation Yrotation Zrotation
									JOINT LeftHandPinky2
									{
										OFFSET 2.849182 0.000000 0.000000
										CHANNELS 3 Xrotation Yrotation Zrotation
										JOINT LeftHandPinky3
										{
											OFFSET 2.805038 0.000000 0.000000
											CHANNELS 3 Xrotation Yrotation Zrotation
											End Site
											{
												OFFSET -0.882500 2.642609 0.325652
											}
										}
									}
								}
							}
							JOINT Left_Sleeve
							{
								OFFSET 6.592125 -0.646545 0.805568
								CHANNELS 3 Xrotation Yrotation Zrotation
								End Site
								{
									OFFSET -0.000179 20.275787 -0.000000
								}
							}
						}
					}
				}
				JOINT RightShoulder
				{
					OFFSET -5.731700 15.108002 -2.763700
					CHANNELS 3 Xrotation Yrotation Zrotation
					JOINT RightArm
					{
						OFFSET -9.825497 2.506317 -1.597400
						CHANNELS 3 Xrotation Yrotation Zrotation
						JOINT RightForeArm
						{
							OFFSET -21.966242 0.000000 0.000000
							CHANNELS 3 Xrotation Yrotation Zrotation
							JOINT RightHand
							{
								OFFSET -33.879032 0.000000 0.000000
								CHANNELS 3 Xrotation Yrotation Zrotation
								JOINT RightHandThumb1
								{
									OFFSET -6.715286 -2.359680 3.363841
									CHANNELS 3 Xrotation Yrotation Zrotation
									JOINT RightHandThumb2
									{
										OFFSET -2.507072 -1.447464 1.447461
										CHANNELS 3 Xrotation Yrotation Zrotation
										JOINT RightHandThumb3
										{
											OFFSET -2.898338 -1.673355 1.673357
											CHANNELS 3 Xrotation Yrotation Zrotation
											End Site
											{
												OFFSET 0.295959 3.727692 -0.131651
											}
										}
									}
								}
								JOINT RightHandIndex1
								{
									OFFSET -14.190811 -0.254547 3.840278
									CHANNELS 3 Xrotation Yrotation Zrotation
									JOINT RightHandIndex2
									{
										OFFSET -3.551727 0.000000 -0.000000
										CHANNELS 3 Xrotation Yrotation Zrotation
										JOINT RightHandIndex3
										{
											OFFSET -2.894196 0.000000 0.000000
											CHANNELS 3 Xrotation Yrotation Zrotation
											End Site
											{
												OFFSET 1.000603 2.690872 0.366626
											}
										}
									}
								}
								JOINT RightHandMiddle1
								{
									OFFSET -13.776489 0.000000 0.000000
									CHANNELS 3 Xrotation Yrotation Zrotation
									JOINT RightHandMiddle2
									{
										OFFSET -3.438232 0.000000 0.000000
										CHANNELS 3 Xrotation Yrotation Zrotation
										JOINT RightHandMiddle3
										{
											OFFSET -3.691551 0.000000 0.000000
											CHANNELS 3 Xrotation Yrotation Zrotation
											End Site
											{
												OFFSET 1.082298 3.499527 0.457670
											}
										}
									}
								}
								JOINT RightHandRing1
								{
									OFFSET -13.966164 -0.268127 -3.067488
									CHANNELS 3 Xrotation Yrotation Zrotation
									JOINT RightHandRing2
									{
										OFFSET -3.162567 0.000000 0.000000
										CHANNELS 3 Xrotation Yrotation Zrotation
										JOINT RightHandRing3
										{
											OFFSET -3.324348 0.000000 0.000000
											CHANNELS 3 Xrotation Yrotation Zrotation
											End Site
											{
												OFFSET 0.861900 3.184998 0.405154
											}
										}
									}
								}
								JOINT RightHandPinky1
								{
									OFFSET -13.131393 -0.168503 -5.746925
									CHANNELS 3 Xrotation Yrotation Zrotation
									JOINT RightHandPinky2
									{
										OFFSET -2.849182 0.000000 0.000000
										CHANNELS 3 Xrotation Yrotation Zrotation
										JOINT RightHandPinky3
										{
											OFFSET -2.805038 0.000000 0.000000
											CHANNELS 3 Xrotation Yrotation Zrotation
											End Site
											{
												OFFSET 0.882500 2.642609 0.325652
											}
										}
									}
								}
							}
							JOINT Right_Sleeve
							{
								OFFSET -6.592125 -0.646545 0.805568
								CHANNELS 3 Xrotation Yrotation Zrotation
								End Site
								{
									OFFSET 0.000179 20.275787 -0.000000
								}
							}
						}
					}
				}
				JOINT Bind_Right_JacketString
				{
					OFFSET -3.534800 11.969597 7.200700
					CHANNELS 3 Xrotation Yrotation Zrotation
					JOINT Bind_Right_JacketString1
					{
						OFFSET -0.319900 -6.102600 2.794100
						CHANNELS 3 Xrotation Yrotation Zrotation
						End Site
						{
							OFFSET 0.000000 6.719452 0.000000
						}
					}
				}
				JOINT Bind_Left_JacketString
				{
					OFFSET 2.904800 11.969597 7.200700
					CHANNELS 3 Xrotation Yrotation Zrotation
					JOINT Bind_Left_JacketString1
					{
						OFFSET 0.364800 -5.904503 3.186800
						CHANNELS 3 Xrotation Yrotation Zrotation
						End Site
						{
							OFFSET 0.000000 6.719513 0.000000
						}
					}
				}
				JOINT HairE
				{
					OFFSET 5.915200 17.612701 -11.592200
					CHANNELS 3 Xrotation Yrotation Zrotation
					JOINT HairE1
					{
						OFFSET 0.289200 -7.171898 -1.284500
						CHANNELS 3 Xrotation Yrotation Zrotation
						End Site
						{
							OFFSET 0.000000 7.291756 0.000000
						}
					}
				}
				JOINT HairF
				{
					OFFSET -0.864800 17.612701 -11.592200
					CHANNELS 3 Xrotation Yrotation Zrotation
					JOINT HairF1
					{
						OFFSET 0.000000 -14.087097 -2.127501
						CHANNELS 3 Xrotation Yrotation Zrotation
						End Site
						{
							OFFSET 0.000000 14.246841 0.000000
						}
					}
				}
				JOINT HairG
				{
					OFFSET -8.087700 17.612701 -11.592200
					CHANNELS 3 Xrotation Yrotation Zrotation
					JOINT HairG1
					{
						OFFSET -0.293600 -6.081398 -0.910100
						CHANNELS 3 Xrotation Yrotation Zrotation
						End Site
						{
							OFFSET 0.000000 6.156120 0.000000
						}
					}
				}
			}
		}
	}
	JOINT Pouch
	{
		OFFSET 0.000000 4.394501 10.847300
		CHANNELS 3 Xrotation Yrotation Zrotation
		End Site
		{
			OFFSET 0.000000 21.880577 0.000000
		}
	}
	JOINT Bag
	{
		OFFSET -13.229000 4.813004 -0.593300
		CHANNELS 3 Xrotation Yrotation Zrotation
		End Site
		{
			OFFSET 0.000000 21.880577 0.000000
		}
	}
	JOINT OccupyGuyFacialAnim_Joint
	{
		OFFSET 1.000000 -70.206398 -1.655000
		CHANNELS 3 Xrotation Yrotation Zrotation
		End Site
		{
			OFFSET 0.000000 21.880577 0.000000
		}
	}
}
MOTION
Frames: 4
Frame Time: 0.016667
-1.005154 67.278168 0.652808 -10.815025 -54.561303 -7.030820 0.000000 0.000001 0.000000 -20.296252 13.770539 14.677233 28.129357 14.770771 0.166910 0.774907 0.358307 -9.099299 -0.000000 -0.000002 -0.000000 -0.000001 -0.000002 -0.000000 -19.070491 -19.672336 -20.668526 38.436722 -3.774454 -3.301378 -14.931552 1.343645 11.141761 -0.000000 -0.000001 -0.000000 0.000001 -0.000001 -0.000000 5.267969 0.484845 0.658419 4.893950 1.120471 0.299610 8.444755 1.036552 0.033109 2.537415 5.572978 -0.185907 2.372536 37.187190 -7.338935 -0.000000 0.000001 -0.000000 -0.000000 0.000001 -0.000000 -0.000000 0.000001 0.000000 -0.000000 0.000001 -0.000001 -0.000000 -0.000001 -0.000000 -0.000000 0.000001 -0.000001 -0.000000 -0.000001 -0.000000 -0.000000 0.000001 -0.000000 -0.000000 0.000001 -0.000000 9.150565 -24.592613 -2.246832 -26.053185 8.217169 -60.618810 -91.270165 13.114509 -86.117136 -27.757931 -7.625875 -6.300477 0.699118 9.503379 -2.418117 5.975200 12.647534 1.348332 0.000000 0.000002 0.000001 9.479722 -1.289756 -20.785565 0.709478 2.796396 -28.467086 0.000001 -0.000003 0.000001 10.058159 -1.800602 -20.644716 1.774268 4.200475 -45.782075 0.000004 0.000001 -0.000001 1.254223 -0.073721 -17.945777 3.754098 5.463657 -68.965294 -0.000004 -0.000003 0.000001 -7.938247 1.609090 -6.495673 2.210574 4.583649 -51.475150 -0.000003 0.000001 -0.000000 0.000000 0.000000 -0.000000 10.411184 20.330611 -1.369221 3.446555 33.597031 47.887867 68.289789 116.117451 -81.856245 -10.139691 21.397010 14.282924 13.942495 -4.273700 -5.300358 7.113168 -20.767448 -2.619500 0.000000 0.000001 0.000000 0.357760 -5.832710 5.175837 0.094351 -0.933670 11.539919 -0.000000 -0.000000 0.000000 3.764074 -12.080461 1.143777 5.714280 -4.535837 103.133555 0.000000 -0.000000 0.000001 -12.155597 -12.623913 9.228348 6.566865 -4.248485 114.232339 0.000000 0.000001 0.000004 -17.635764 -10.496877 3.325421 4.993648 -4.645045 94.147942 0.000000 0.000002 -0.000001 -0.000000 -0.000000 0.000000 -0.000001 0.000000 0.000000 -0.000000 -0.000002 0.000000 -0.000001 0.000000 0.000000 -0.000001 0.000000 0.000000 -0.000001 0.000000 0.000000 -0.000000 -0.000002 0.000000 -0.000001 0.000000 0.000000 -0.000001 0.000000 0.000000 -0.000001 0.000000 0.000000 -0.000000 -0.000002 0.000000 0.000000 0.000001 0.000000 0.000000 0.000001 0.000000 0.000000 0.000001 0.000000 
-0.948760 67.227623 1.100670 -10.378428 -53.140176 -6.593760 -0.000000 -0.000003 -0.000000 -20.976966 13.672076 14.395440 29.218692 13.518422 -0.118447 -0.038960 0.345492 -8.477923 0.000000 -0.000000 0.000000 -0.000000 0.000003 0.000001 -18.962482 -17.954257 -20.980436 40.198505 -5.601224 -1.859472 -15.969650 1.467767 9.370141 0.000000 -0.000001 -0.000000 -0.000001 -0.000000 0.000000 5.213068 0.399702 0.786344 4.881397 0.959846 0.315641 8.443278 1.126739 0.051356 2.560039 5.635929 -0.196400 2.510865 38.008097 -7.338062 0.000001 0.000000 -0.000001 0.000001 0.000000 -0.000001 0.000001 0.000000 -0.000000 0.000001 0.000000 -0.000001 -0.000000 0.000000 -0.000000 0.000001 0.000000 -0.000001 -0.000000 0.000000 -0.000000 0.000001 0.000000 -0.000001 0.000001 0.000000 -0.000001 8.936016 -24.743211 -2.968069 -26.604874 8.959844 -60.009789 -91.306030 12.800079 -85.897627 -27.851654 -7.038006 -5.777689 0.699119 9.503387 -2.418116 5.975200 12.647538 1.348332 -0.000000 0.000001 -0.000001 9.479721 -1.289752 -20.785562 0.709478 2.796396 -28.467086 0.000002 -0.000002 -0.000000 10.058161 -1.800596 -20.644715 1.774267 4.200472 -45.782072 0.000004 0.000001 -0.000001 1.254224 -0.073721 -17.945774 3.754098 5.463655 -68.965294 0.000003 0.000000 0.000000 -7.938249 1.609093 -6.495674 2.210571 4.583648 -51.475154 0.000003 -0.000002 0.000003 0.000000 -0.000002 0.000000 10.571299 20.013233 -2.157010 3.272280 35.427529 47.123978 70.645931 116.398909 -84.504234 -10.445483 22.183737 13.476860 13.942498 -4.273699 -5.300357 7.113169 -20.767450 -2.619499 -0.000000 -0.000001 0.000000 0.357761 -5.832707 5.175835 0.094351 -0.933670 11.539919 -0.000001 -0.000004 -0.000002 3.764073 -12.080464 1.143777 5.714282 -4.535835 103.133555 0.000002 -0.000000 0.000001 -12.155597 -12.623913 9.228350 6.566866 -4.248486 114.232339 0.000001 0.000002 0.000001 -17.635765 -10.496878 3.325420 4.993645 -4.645046 94.147942 -0.000001 0.000003 0.000001 0.000000 0.000000 0.000000 0.000001 -0.000000 -0.000000 0.000001 -0.000000 -0.000001 0.000001 -0.000000 -0.000000 0.000001 -0.000000 -0.000000 0.000001 -0.000000 -0.000000 0.000001 -0.000000 -0.000000 0.000001 -0.000000 -0.000000 0.000001 -0.000000 -0.000000 0.000001 -0.000000 -0.000000 0.000001 -0.000000 -0.000000 -0.000000 -0.000003 -0.000000 -0.000000 -0.000003 -0.000000 -0.000000 -0.000003 -0.000000 
-0.844398 67.114021 1.556696 -9.969104 -51.717404 -6.165485 -0.000000 0.000003 0.000000 -21.849780 13.527593 14.142950 30.694119 12.298666 -0.485006 -1.019842 0.301705 -7.795525 0.000000 -0.000002 -0.000000 0.000001 0.000003 0.000001 -20.228758 -15.417421 -21.485414 44.238032 -7.334048 -1.168636 -15.608772 1.259958 9.063396 0.000000 0.000000 -0.000000 0.000001 0.000003 -0.000000 5.202490 0.380029 0.804551 4.875919 0.893835 0.313338 8.471698 1.741683 0.006407 2.611687 5.795510 -0.175233 2.871612 40.218503 -7.339839 0.000000 -0.000000 0.000001 0.000000 -0.000000 0.000001 0.000000 -0.000000 0.000001 0.000000 -0.000000 -0.000000 -0.000001 0.000000 -0.000000 0.000000 -0.000000 -0.000000 -0.000001 0.000000 -0.000000 0.000000 -0.000000 0.000001 0.000000 -0.000000 0.000001 8.936017 -24.743310 -2.968065 -27.022578 9.098574 -59.788737 -91.418134 12.788543 -85.389707 -28.033238 -6.726862 -5.796750 0.699116 9.503387 -2.418116 5.975200 12.647535 1.348333 0.000000 -0.000000 -0.000002 9.479720 -1.289755 -20.785569 0.709478 2.796396 -28.467088 -0.000000 0.000002 -0.000002 10.058162 -1.800599 -20.644715 1.774265 4.200475 -45.782072 0.000005 -0.000000 0.000001 1.254225 -0.073723 -17.945777 3.754098 5.463648 -68.965294 -0.000002 -0.000001 0.000001 -7.938249 1.609092 -6.495673 2.210568 4.583644 -51.475154 -0.000002 -0.000000 -0.000001 -0.000000 0.000002 -0.000000 10.565196 19.946543 -2.142264 2.607385 35.855150 47.333556 71.764702 116.208429 -85.771023 -10.570367 21.998958 13.615182 13.942500 -4.273698 -5.300357 7.113169 -20.767453 -2.619499 -0.000001 -0.000001 -0.000000 0.357762 -5.832706 5.175837 0.094352 -0.933671 11.539915 -0.000001 -0.000001 0.000002 3.764074 -12.080466 1.143775 5.714281 -4.535835 103.133555 0.000000 0.000000 0.000001 -12.155597 -12.623913 9.228349 6.566866 -4.248485 114.232339 0.000002 -0.000000 -0.000001 -17.635765 -10.496877 3.325422 4.993642 -4.645044 94.147942 -0.000001 0.000004 -0.000001 -0.000000 0.000000 0.000000 -0.000001 0.000004 -0.000001 -0.000001 0.000001 -0.000001 -0.000001 0.000004 -0.000001 -0.000001 0.000004 -0.000001 -0.000001 0.000004 -0.000001 -0.000001 0.000001 -0.000001 -0.000001 0.000004 -0.000001 -0.000001 0.000004 -0.000001 -0.000001 0.000004 -0.000001 -0.000001 0.000001 -0.000001 -0.000000 0.000003 0.000000 -0.000000 0.000003 0.000000 -0.000000 0.000003 0.000000 
-0.718623 66.968887 2.033009 -9.584084 -50.291847 -5.762807 0.000000 -0.000001 -0.000000 -22.778254 13.369840 13.919725 32.319516 11.087032 -0.930441 -2.075987 0.230672 -7.037429 -0.000000 0.000000 -0.000000 0.000000 0.000000 -0.000000 -21.494291 -12.558321 -21.587366 48.329493 -8.948955 -0.752840 -14.812165 0.837672 9.142775 0.000000 0.000000 -0.000000 0.000001 0.000000 -0.000000 5.201207 0.366267 0.787237 4.870107 0.829823 0.304667 8.520206 2.710898 -0.072874 2.689527 6.030622 -0.142774 3.412317 43.413939 -7.365481 0.000000 0.000000 -0.000000 0.000000 0.000000 -0.000000 0.000000 0.000000 0.000000 0.000000 0.000000 -0.000000 -0.000001 0.000000 -0.000000 0.000000 0.000000 -0.000000 -0.000001 0.000000 -0.000000 0.000000 0.000000 -0.000000 0.000000 0.000000 -0.000000 8.936036 -24.743293 -2.968068 -27.403880 9.241049 -59.623044 -91.512835 12.777753 -84.960532 -28.164036 -6.454049 -5.810563 0.699115 9.503383 -2.418116 5.975204 12.647533 1.348335 0.000000 -0.000000 -0.000001 9.479717 -1.289758 -20.785565 0.709482 2.796397 -28.467088 0.000001 0.000002 0.000000 10.058159 -1.800600 -20.644715 1.774266 4.200475 -45.782075 0.000001 -0.000001 -0.000001 1.254222 -0.073726 -17.945774 3.754097 5.463654 -68.965287 -0.000002 0.000001 0.000001 -7.938252 1.609089 -6.495674 2.210569 4.583643 -51.475154 -0.000005 0.000001 -0.000001 0.000000 0.000001 -0.000000 10.560322 19.868218 -2.125412 2.003538 36.236107 47.517138 72.763576 116.049695 -86.902484 -10.678809 21.824893 13.770451 13.942498 -4.273698 -5.300358 7.113168 -20.767450 -2.619499 -0.000001 0.000000 0.000001 0.357761 -5.832707 5.175836 0.094353 -0.933672 11.539920 -0.000001 -0.000003 -0.000000 3.764075 -12.080463 1.143775 5.714281 -4.535835 103.133555 0.000000 -0.000001 0.000001 -12.155600 -12.623913 9.228346 6.566866 -4.248484 114.232339 -0.000000 0.000001 0.000002 -17.635762 -10.496875 3.325420 4.993649 -4.645046 94.147942 0.000000 0.000001 0.000001 0.000000 0.000000 -0.000000 -0.000000 -0.000000 0.000001 -0.000000 -0.000000 0.000000 -0.000000 -0.000000 0.000000 -0.000000 -0.000000 0.000000 -0.000000 -0.000000 0.000001 -0.000000 -0.000000 0.000001 -0.000000 -0.000000 0.000000 -0.000000 -0.000000 0.000000 -0.000000 -0.000000 0.000001 -0.000000 -0.000000 0.000001 0.000000 -0.000001 -0.000000 0.000000 -0.000001 -0.000000 0.000000 -0.000001 -0.000000 
